# xmcd
#
# Track frame offsets:
#	150
#	13138
#	23724
#	35836
#	47369
#	57001
#	68286
#	78919
#	89244
#	100460
#	112439
#	122784
#	137431
#	151348
#	160496
#	172179
#	182668
#	194222
#	207723
#	217950
#
# Disc length: 3037 seconds
#
# Revision: 1
# Processed by: cddbd v1.5.2PL0 Copyright (c) Steve Scherf et al.
# Submitted via: audiograbber 1.83.01
#
DISCID=280bdb14
DTITLE=Patsy Cline - The Absolute Essential Collection Disc 3
DYEAR=2013
DGENRE=Classic Country
TTITLE0=I Fall To Pieces
TTITLE1=How Can I Face Tomorrow
TTITLE2=If I Could Only Stay Asleep
TTITLE3=Hungry For Love
TTITLE4=Come On In (And Make Yourself At Home)
TTITLE5=I Can't Forget You
TTITLE6=Too Many Secrets
TTITLE7=Strange
TTITLE8=Shoes
TTITLE9=A Poor Man's Rose (Or A Rich Man's Gold)
TTITLE10=Three Cigarettes In A Ashtray
TTITLE11=Then You'll Know
TTITLE12=She's Got You
TTITLE13=Anytime
TTITLE14=Your Kinda Love
TTITLE15=Who Can I Count On
TTITLE16=I'll Sail My Ship Alone
TTITLE17=I Can't Help It (I'm Still In Love With You)
TTITLE18=Seven Lonley Days
TTITLE19=Heartaches
EXTD=
EXTT0=
EXTT1=
EXTT2=
EXTT3=
EXTT4=
EXTT5=
EXTT6=
EXTT7=
EXTT8=
EXTT9=
EXTT10=
EXTT11=
EXTT12=
EXTT13=
EXTT14=
EXTT15=
EXTT16=
EXTT17=
EXTT18=
EXTT19=
PLAYORDER=
